# xmcd
#
# Track frame offsets: 
#        150
#        11686
#        25730
#        38268
#        59055
#        71761
#        90820
#        106201
#        116511
#        130053
#        147831
#        165386
#
# Disc length: 2397 seconds
#
# Revision: 0
# Processed by: cddbd v1.5.2PL0 Copyright (c) Steve Scherf et al.
# Submitted via: ExactAudioCopy v0.95b4
#
DISCID=8f095b0c
DTITLE=High Cotton - Picking In High Cotton
DYEAR=2010
DGENRE=Bluegrass
TTITLE0=Foggy Mountain Top
TTITLE1=Winter's Come And Gone
TTITLE2=Turkey Knob
TTITLE3=Once More
TTITLE4=Lonesome Wind Blues
TTITLE5=(My) Blue Eyed Darling
TTITLE6=Sittin' Alone In The Moonlight
TTITLE7=Think Of What You've Done
TTITLE8=Cabin On The Hill
TTITLE9=Olivia's Dream
TTITLE10=Pass Me Not
TTITLE11=Love Of The Mountains
EXTD=
EXTT0=
EXTT1=
EXTT2=
EXTT3=
EXTT4=
EXTT5=
EXTT6=
EXTT7=
EXTT8=
EXTT9=
EXTT10=
EXTT11=
PLAYORDER=
